<svg width="16" height="16" viewBox="0 0 16 16" fill="none" xmlns="http://www.w3.org/2000/svg">
<g clip-path="url(#clip0_219_96)">
<path fill-rule="evenodd" clip-rule="evenodd" d="M8 2.33337C4.87039 2.33337 2.33334 4.87043 2.33334 8.00004C2.33334 11.1297 4.87039 13.6667 8 13.6667C11.1296 13.6667 13.6667 11.1297 13.6667 8.00004C13.6667 4.87043 11.1296 2.33337 8 2.33337ZM0.333336 8.00004C0.333336 3.76586 3.76582 0.333374 8 0.333374C12.2342 0.333374 15.6667 3.76586 15.6667 8.00004C15.6667 12.2342 12.2342 15.6667 8 15.6667C3.76582 15.6667 0.333336 12.2342 0.333336 8.00004Z" fill="#D1D5DB"/>
<path fill-rule="evenodd" clip-rule="evenodd" d="M6.70364 4.57024C7.40028 4.3069 8.1606 4.26195 8.88342 4.44135C9.60624 4.62076 10.2573 5.01602 10.7499 5.57454C11.1153 5.98872 11.0757 6.62065 10.6615 6.98599C10.2473 7.35132 9.61539 7.31172 9.25006 6.89754C9.02612 6.64367 8.73019 6.464 8.40164 6.38246C8.07308 6.30091 7.72748 6.32134 7.41083 6.44104C7.09417 6.56074 6.82147 6.77403 6.62902 7.05252C6.43657 7.33102 6.33348 7.66152 6.33348 8.00004C6.33348 8.33857 6.43657 8.66906 6.62902 8.94756C6.82147 9.22605 7.09417 9.43934 7.41083 9.55904C7.72748 9.67874 8.07308 9.69917 8.40164 9.61763C8.73019 9.53608 9.02612 9.35641 9.25006 9.10254C9.61539 8.68836 10.2473 8.64876 10.6615 9.0141C11.0757 9.37943 11.1153 10.0114 10.7499 10.4255C10.2573 10.9841 9.60624 11.3793 8.88342 11.5587C8.1606 11.7381 7.40028 11.6932 6.70364 11.4298C6.007 11.1665 5.40707 10.6973 4.98367 10.0846C4.56027 9.47189 4.33348 8.74479 4.33348 8.00004C4.33348 7.25529 4.56027 6.52819 4.98367 5.9155C5.40707 5.30281 6.007 4.83358 6.70364 4.57024Z" fill="#D1D5DB"/>
</g>
<defs>
<clipPath id="clip0_219_96">
<rect width="16" height="16" fill="white"/>
</clipPath>
</defs>
</svg>
