<svg width="24" height="24" viewBox="0 0 24 24" fill="none" xmlns="http://www.w3.org/2000/svg">
<path fill-rule="evenodd" clip-rule="evenodd" d="M12 3C7.02944 3 3 7.02944 3 12C3 16.9706 7.02944 21 12 21C16.9706 21 21 16.9706 21 12C21 7.02944 16.9706 3 12 3ZM1 12C1 5.92487 5.92487 1 12 1C18.0751 1 23 5.92487 23 12C23 18.0751 18.0751 23 12 23C5.92487 23 1 18.0751 1 12Z" fill="white"/>
<path fill-rule="evenodd" clip-rule="evenodd" d="M9 8.5C9 7.94772 9.44772 7.5 10 7.5H12C12.9894 7.5 13.7737 7.83943 14.3024 8.42108C14.8097 8.97902 15 9.67018 15 10.25C15 10.8298 14.8097 11.521 14.3024 12.0789C14.0285 12.3802 13.686 12.6165 13.282 12.7743L14.8137 14.9188C15.1347 15.3682 15.0307 15.9927 14.5812 16.3137C14.1318 16.6347 13.5073 16.5307 13.1863 16.0812L11 13.0205V15.5C11 16.0523 10.5523 16.5 10 16.5C9.44772 16.5 9 16.0523 9 15.5V8.5ZM11 11H11.4867C11.495 10.9999 11.5033 10.9999 11.5116 11H12C12.5106 11 12.7263 10.8394 12.8226 10.7336C12.9403 10.604 13 10.4202 13 10.25C13 10.0798 12.9403 9.89598 12.8226 9.76642C12.7263 9.66057 12.5106 9.5 12 9.5H11V11Z" fill="white"/>
</svg>
