<svg width="51" height="51" viewBox="0 0 51 51" fill="none" xmlns="http://www.w3.org/2000/svg">
<circle cx="25.5" cy="25.5" r="25.5" fill="white"/>
<path d="M13.4896 19.4535C13.4896 18.355 14.3801 17.4645 15.4786 17.4645C16.5771 17.4645 17.4676 18.355 17.4676 19.4535V34.8045H16.7007C14.9272 34.8045 13.4896 33.3668 13.4896 31.5934V19.4535Z" fill="#0094FF"/>
<path d="M32.7676 19.4535C32.7676 18.355 33.6581 17.4645 34.7566 17.4645C35.8551 17.4645 36.7456 18.355 36.7456 19.4535V31.5934C36.7456 33.3668 35.3079 34.8045 33.5345 34.8045H32.7676V19.4535Z" fill="#03A400"/>
<path d="M33.5634 17.4363C34.3829 16.7184 35.6285 16.7974 36.3507 17.6131C37.083 18.44 36.9972 19.7062 36.16 20.4267L31.569 24.378L30.8176 19.8417L33.5634 17.4363Z" fill="#FFE600"/>
<path fill-rule="evenodd" clip-rule="evenodd" d="M13.6931 18.2398C13.0743 19.2032 13.3277 20.5279 14.2582 21.1947L25.959 29.5799L25.959 29.5799L31.5878 24.3577L30.8596 19.7967L25.7948 24.4306L16.4872 17.7103C15.5613 17.0417 14.3103 17.2788 13.6931 18.2398Z" fill="#FF0909" fill-opacity="0.86"/>
</svg>
