<svg width="62" height="62" viewBox="0 0 62 62" fill="none" xmlns="http://www.w3.org/2000/svg">
<path d="M31.0615 0H30.9203C13.8435 0 0 13.8476 0 30.9294V31.0706C0 48.1524 13.8435 62 30.9203 62H31.0615C48.1383 62 61.9818 48.1524 61.9818 31.0706V30.9294C61.9818 13.8476 48.1383 0 31.0615 0Z" fill="#007EBB"/>
<path d="M14.7816 20.6094C13.9651 19.8513 13.559 18.913 13.559 17.7965C13.559 16.68 13.9672 15.7003 14.7816 14.9401C15.5981 14.182 16.6491 13.8019 17.9368 13.8019C19.2245 13.8019 20.2343 14.182 21.0486 14.9401C21.8651 15.6982 22.2711 16.6518 22.2711 17.7965C22.2711 18.9412 21.8629 19.8513 21.0486 20.6094C20.2321 21.3675 19.1963 21.7476 17.9368 21.7476C16.6773 21.7476 15.5981 21.3675 14.7816 20.6094ZM21.585 24.9581V48.2002H14.243V24.9581H21.585Z" fill="#FEFFFC"/>
<path d="M46.0254 27.2541C47.6258 28.9918 48.425 31.3768 48.425 34.4135V47.7897H41.4523V35.3562C41.4523 33.8248 41.0549 32.6345 40.2623 31.7874C39.4697 30.9402 38.4013 30.5145 37.0636 30.5145C35.726 30.5145 34.6575 30.938 33.8649 31.7874C33.0723 32.6345 32.6749 33.8248 32.6749 35.3562V47.7897H25.6609V24.8929H32.6749V27.9296C33.385 26.9174 34.3427 26.118 35.5457 25.5294C36.7487 24.9407 38.1016 24.6475 39.6065 24.6475C42.2861 24.6475 44.4272 25.5163 46.0254 27.2541Z" fill="#FEFFFC"/>
</svg>
