<svg width="135" height="48" viewBox="0 0 135 48" fill="none" xmlns="http://www.w3.org/2000/svg">
<path fill-rule="evenodd" clip-rule="evenodd" d="M55.59 36.0903H55.53C55.557 36.0903 55.575 36.1173 55.602 36.1233L55.62 36.1203L55.59 36.0903ZM55.602 36.1233C55.323 36.1263 54.621 36.2703 53.88 36.2703C51.54 36.2703 50.73 35.1903 50.73 33.7803V24.3903H55.5C55.77 24.3903 55.98 24.1503 55.98 23.8203V18.7203C55.98 18.4503 55.74 18.2103 55.5 18.2103H50.73V11.8803C50.73 11.6403 50.58 11.4903 50.31 11.4903H43.83C43.56 11.4903 43.41 11.6403 43.41 11.8803V18.3903C43.41 18.3903 40.14 19.2003 39.93 19.2303C39.69 19.2903 39.54 19.5003 39.54 19.7403V23.8203C39.54 24.1503 39.78 24.3903 40.05 24.3903H43.38V34.2303C43.38 41.5503 48.48 42.3003 51.96 42.3003C53.55 42.3003 55.47 41.7903 55.77 41.6403C55.95 41.5803 56.04 41.3703 56.04 41.1603V36.6603C56.04 36.3633 55.836 36.1653 55.602 36.1233ZM126.69 29.5203C126.69 24.0903 124.5 23.3703 122.19 23.6103C120.39 23.7303 118.95 24.6303 118.95 24.6303V35.1903C118.95 35.1903 120.42 36.2103 122.61 36.2703C125.7 36.3603 126.69 35.2503 126.69 29.5203ZM133.98 29.0403C133.98 39.3303 130.65 42.2703 124.83 42.2703C119.91 42.2703 117.27 39.7803 117.27 39.7803C117.27 39.7803 117.15 41.1603 117 41.3403C116.91 41.5203 116.76 41.5803 116.58 41.5803H112.14C111.84 41.5803 111.57 41.3403 111.57 41.0703L111.63 7.74033C111.63 7.47033 111.87 7.23033 112.14 7.23033H118.53C118.8 7.23033 119.04 7.47033 119.04 7.74033L118.98 18.9903C118.98 18.9903 121.44 17.4003 125.04 17.4003H125.07C128.67 17.4003 133.98 18.7503 133.98 29.0403ZM107.82 18.2103H101.52C101.19 18.2103 101.01 18.4503 101.01 18.7803V35.1003C101.01 35.1003 99.36 36.2703 97.11 36.2703C94.86 36.2703 94.2 35.2503 94.2 33.0003V18.7503C94.2 18.4803 93.96 18.2403 93.69 18.2403H87.27C87 18.2403 86.76 18.4803 86.76 18.7503V34.0803C86.76 40.6803 90.45 42.3303 95.52 42.3303C99.69 42.3303 103.08 40.0203 103.08 40.0203C103.08 40.0203 103.23 41.1903 103.32 41.3703C103.38 41.5203 103.59 41.6403 103.8 41.6403H107.82C108.15 41.6403 108.33 41.4003 108.33 41.1303L108.39 18.7203C108.39 18.4503 108.15 18.2103 107.82 18.2103ZM36.72 18.1803H30.33C30.06 18.1803 29.82 18.4503 29.82 18.7803V40.8003C29.82 41.4003 30.21 41.6103 30.72 41.6103H36.48C37.08 41.6103 37.23 41.3403 37.23 40.8003V18.6903C37.23 18.4203 36.99 18.1803 36.72 18.1803ZM33.57 8.04033C31.26 8.04033 29.43 9.87033 29.43 12.1803C29.43 14.4903 31.26 16.3203 33.57 16.3203C35.82 16.3203 37.65 14.4903 37.65 12.1803C37.65 9.87033 35.82 8.04033 33.57 8.04033ZM83.04 7.29033H76.71C76.44 7.29033 76.2 7.53033 76.2 7.80033V20.0703H66.27V7.80033C66.27 7.53033 66.03 7.29033 65.76 7.29033H59.37C59.1 7.29033 58.86 7.53033 58.86 7.80033V41.1303C58.86 41.4003 59.13 41.6403 59.37 41.6403H65.76C66.03 41.6403 66.27 41.4003 66.27 41.1303V26.8803H76.2L76.14 41.1303C76.14 41.4003 76.38 41.6403 76.65 41.6403H83.04C83.31 41.6403 83.55 41.4003 83.55 41.1303V7.80033C83.55 7.53033 83.31 7.29033 83.04 7.29033ZM26.43 22.0503V39.2703C26.43 39.3903 26.4 39.6003 26.25 39.6603C26.25 39.6603 22.5 42.3303 16.32 42.3303C8.85 42.3303 0 39.9903 0 24.5703C0 9.15033 7.74 5.97033 15.3 6.00033C21.84 6.00033 24.48 7.47033 24.9 7.74033C25.02 7.89033 25.08 8.01033 25.08 8.16033L23.82 13.5003C23.82 13.7703 23.55 14.1003 23.22 14.0103C22.14 13.6803 20.52 13.0203 16.71 13.0203C12.3 13.0203 7.56 14.2803 7.56 24.2103C7.56 34.1403 12.06 35.3103 15.3 35.3103C18.06 35.3103 19.05 34.9803 19.05 34.9803V28.0803H14.64C14.31 28.0803 14.07 27.8403 14.07 27.5703V22.0503C14.07 21.7803 14.31 21.5403 14.64 21.5403H25.86C26.19 21.5403 26.43 21.7803 26.43 22.0503Z" fill="white"/>
</svg>
