<svg width="58" height="58" viewBox="0 0 58 58" fill="none" xmlns="http://www.w3.org/2000/svg">
<path d="M29 58C45.0163 58 58 45.0163 58 29C58 12.9837 45.0163 0 29 0C12.9837 0 0 12.9837 0 29C0 45.0163 12.9837 58 29 58Z" fill="url(#paint0_linear_151_166)"/>
<path fill-rule="evenodd" clip-rule="evenodd" d="M13.127 28.6939C21.5811 25.0106 27.2185 22.5823 30.0392 21.4091C38.0928 18.0593 39.7663 17.4774 40.857 17.4582C41.0969 17.454 41.6333 17.5134 41.9808 17.7954C42.2741 18.0334 42.3549 18.355 42.3935 18.5807C42.4321 18.8064 42.4802 19.3206 42.442 19.7224C42.0055 24.308 40.1171 35.436 39.1564 40.5719C38.7499 42.7451 37.9495 43.4738 37.1745 43.5451C35.4904 43.7 34.2116 42.4321 32.5805 41.3629C30.0281 39.6898 28.5862 38.6483 26.1087 37.0156C23.2455 35.1288 25.1016 34.0918 26.7333 32.397C27.1603 31.9534 34.5805 25.2043 34.7241 24.592C34.742 24.5155 34.7587 24.23 34.5891 24.0793C34.4196 23.9286 34.1693 23.9801 33.9887 24.0211C33.7327 24.0792 29.6552 26.7743 21.7563 32.1063C20.599 32.901 19.5506 33.2882 18.6114 33.2679C17.5759 33.2456 15.5842 32.6825 14.1035 32.2012C12.2873 31.6108 10.8439 31.2987 10.9696 30.2961C11.0351 29.7739 11.7542 29.2398 13.127 28.6939Z" fill="white"/>
<defs>
<linearGradient id="paint0_linear_151_166" x1="29" y1="0" x2="29" y2="57.5698" gradientUnits="userSpaceOnUse">
<stop stop-color="#2AABEE"/>
<stop offset="1" stop-color="#229ED9"/>
</linearGradient>
</defs>
</svg>
