<svg width="40" height="40" viewBox="0 0 40 40" fill="none" xmlns="http://www.w3.org/2000/svg">
<path fill-rule="evenodd" clip-rule="evenodd" d="M6 0H34C37.3137 0 40 2.68628 40 6V34C40 37.3137 37.3137 40 34 40H6C2.68628 40 0 37.3137 0 34V6C0 2.68628 2.68628 0 6 0ZM24.2031 21.7188C25.3281 22.6328 26.5781 23.1953 27.9062 23.1953C29.7031 23.1953 31.1641 21.7422 31.1641 19.9453C31.1641 18.1484 29.7031 16.6875 27.9062 16.6875C25.5078 16.6875 24.7344 19 24.4844 20.375L24.4766 20.4219L24.2031 21.7188ZM21.5078 18.6484C22.4766 15.375 24.8438 13.3906 27.9062 13.3906C31.5156 13.3906 34.4453 16.3281 34.4375 19.9297C34.4375 23.5469 31.5 26.5 27.8906 26.5C26.2031 26.5 24.7344 25.9844 23.4531 25.1641L21.9922 32.0391H18.625L20.6406 22.5547C19.6875 21.3672 18.9062 20.0156 18.2656 18.6797V20.1172C18.2656 23.625 15.4141 26.5078 11.9062 26.5078C8.39844 26.5078 5.54688 23.625 5.54688 20.1172V11.5469H8.83594V20.125C8.83594 21.8203 10.2109 23.1953 11.9062 23.1953C13.6016 23.1953 14.9766 21.8203 14.9766 20.125V11.5547H18.2734C18.9219 13.7891 20.0391 16.4375 21.5078 18.6484Z" fill="#6FDA44"/>
</svg>
