<svg width="52" height="52" viewBox="0 0 52 52" fill="none" xmlns="http://www.w3.org/2000/svg">
<path d="M26 5.41663C23.1411 5.41663 14.4409 5.41663 9.63085 9.80846C6.76652 12.662 5.41669 16.7851 5.41669 22.75V26C5.41669 31.9648 6.76652 36.088 9.66444 38.974C11.1074 40.2902 13.0748 41.3421 15.4798 42.069L16.25 42.3009V48.0729C16.25 48.75 16.4461 48.75 16.5111 48.75C16.6444 48.75 16.8578 48.7077 17.2629 48.348C17.3604 48.2516 18.0754 47.4781 21.5529 43.5825L21.9039 43.1892L22.4294 43.2228C23.5939 43.2954 24.7954 43.3333 26 43.3333C28.8589 43.3333 37.5592 43.3333 42.3692 38.9404C45.2324 36.0869 46.5834 31.9637 46.5834 26V22.75C46.5834 16.7851 45.2335 12.662 42.3356 9.77596C37.5592 5.41663 28.8589 5.41663 26 5.41663Z" fill="url(#paint0_linear_143_124)"/>
<path d="M36.2386 31.2585C35.035 30.2445 34.4792 29.938 32.8174 28.9402C32.1251 28.5253 31.07 28.1667 30.5164 28.1667C30.1383 28.1667 29.6855 28.456 29.4081 28.7333C28.6975 29.444 28.4646 30.3334 27.2187 30.3334C26 30.3334 23.8712 29.093 22.3437 27.4896C20.7404 25.9621 19.5 23.8334 19.5 22.6146C19.5 21.3688 20.3731 21.1196 21.0838 20.4079C21.3611 20.1316 21.6666 19.6788 21.6666 19.3007C21.6666 18.7471 21.3081 17.7082 20.8931 17.016C19.8954 15.353 19.5899 14.7973 18.5748 13.5948C18.2314 13.1875 17.8403 13.0011 17.4308 13C16.7386 12.999 15.8296 13.3424 15.2143 13.8006C14.2891 14.4907 13.3217 15.43 13.0628 16.6C13.0281 16.7592 13.0076 16.9195 13.0011 17.0799C12.9512 18.2986 13.4301 19.5358 13.9468 20.5834C15.1634 23.0523 16.7732 25.4421 18.525 27.5763C19.0851 28.2588 19.695 28.8936 20.3266 29.5068C20.9397 30.1373 21.5746 30.7472 22.2571 31.3084C24.3912 33.0601 26.7811 34.67 29.25 35.8865C30.2878 36.3979 31.5098 36.868 32.7166 36.8334C32.8889 36.828 33.0611 36.8085 33.2334 36.7705C34.4034 36.5127 35.3426 35.5442 36.0327 34.619C36.491 34.0037 36.8344 33.0959 36.8333 32.4025C36.8322 31.993 36.6459 31.602 36.2386 31.2585ZM36.8333 26C36.2353 26 35.75 25.5147 35.75 24.9167V23.8334C35.75 18.4579 31.3755 14.0834 26 14.0834C25.402 14.0834 24.9166 13.598 24.9166 13C24.9166 12.402 25.402 11.9167 26 11.9167C32.5704 11.9167 37.9166 17.263 37.9166 23.8334V24.9167C37.9166 25.5147 37.4313 26 36.8333 26ZM30.1795 23.8334C29.6985 23.8334 29.2586 23.5105 29.1319 23.023C28.8351 21.8845 27.9467 20.995 26.8125 20.7025C26.2329 20.552 25.8851 19.9615 26.0346 19.382C26.1841 18.8035 26.7735 18.4557 27.3552 18.6041C29.2489 19.0949 30.7331 20.578 31.2281 22.476C31.3787 23.0555 31.0321 23.646 30.4536 23.7976C30.3615 23.8215 30.2694 23.8334 30.1795 23.8334ZM33.5833 24.9167C32.9853 24.9167 32.5 24.4314 32.5 23.8334C32.5 20.3797 29.7981 17.5305 26.3488 17.3485C25.7508 17.3171 25.2926 16.8069 25.324 16.21C25.3554 15.612 25.8743 15.1526 26.4626 15.1851C31.0635 15.4278 34.6666 19.227 34.6666 23.8334C34.6666 24.4314 34.1813 24.9167 33.5833 24.9167ZM26 4.33337C21.125 4.33337 13.5286 4.78187 8.90064 9.00904C5.62897 12.2666 4.33331 16.8361 4.33331 22.75C4.33331 23.2397 4.33114 23.7857 4.33547 24.375C4.33114 24.9633 4.33331 25.5093 4.33331 25.999C4.33331 31.9129 5.62897 36.4824 8.90064 39.74C10.6621 41.3487 12.8591 42.4071 15.1666 43.1048V48.073C15.1666 49.802 16.3031 49.8334 16.5111 49.8334H16.5208C17.056 49.8312 17.5186 49.569 17.9822 49.1574C18.1566 49.0025 20.1706 46.7578 22.3611 44.303C23.6654 44.3864 24.9047 44.4167 25.9989 44.4167C30.8739 44.4167 38.4691 43.9671 43.0982 39.74C46.3688 36.4835 47.6656 31.9129 47.6656 25.999C47.6656 25.5093 47.6677 24.9633 47.6634 24.374C47.6677 23.7846 47.6656 23.2397 47.6656 22.749C47.6656 16.835 46.3699 12.2655 43.0982 9.00796C38.4702 4.78187 30.875 4.33337 26 4.33337ZM44.4166 25.622V25.999C44.4166 31.3138 43.2846 34.9354 40.8568 37.387C36.6513 41.1667 28.6401 41.1667 25.9989 41.1667C25.1951 41.1667 23.8907 41.1656 22.3513 41.0584C21.9234 41.5394 17.3333 46.6733 17.3333 46.6733V40.3217C15.054 39.7746 12.8017 38.8776 11.1431 37.388C8.71539 34.9354 7.58331 31.3138 7.58331 25.999V25.622C7.58331 25.2417 7.58222 24.8311 7.58547 24.3512C7.58222 23.9179 7.58222 23.5084 7.58331 23.127V22.75C7.58331 17.4352 8.71539 13.8136 11.1431 11.362C15.3476 7.58229 23.3599 7.58229 26 7.58229C28.6401 7.58229 36.6513 7.58229 40.8557 11.362C43.2846 13.8136 44.4156 17.4352 44.4156 22.75V23.127C44.4156 23.5073 44.4166 23.9179 44.4134 24.3978C44.4166 24.8322 44.4166 25.2417 44.4166 25.622Z" fill="url(#paint1_linear_143_124)"/>
<defs>
<linearGradient id="paint0_linear_143_124" x1="15.2869" y1="-6.46863" x2="36.9991" y2="56.0419" gradientUnits="userSpaceOnUse">
<stop stop-color="#FCFCFC"/>
<stop offset="0.495" stop-color="#F4F4F4"/>
<stop offset="0.946" stop-color="#E8E8E8"/>
<stop offset="1" stop-color="#E8E8E8"/>
</linearGradient>
<linearGradient id="paint1_linear_143_124" x1="46.1586" y1="52.4301" x2="2.73214" y2="-7.86821" gradientUnits="userSpaceOnUse">
<stop stop-color="#912FBD"/>
<stop offset="1" stop-color="#9332BF"/>
</linearGradient>
</defs>
</svg>
