<svg width="44" height="46" viewBox="0 0 44 46" fill="none" xmlns="http://www.w3.org/2000/svg">
<path d="M32.2386 27.2585C31.035 26.2445 30.4792 25.938 28.8174 24.9402C28.1251 24.5253 27.07 24.1667 26.5164 24.1667C26.1383 24.1667 25.6855 24.456 25.4081 24.7333C24.6975 25.444 24.4646 26.3334 23.2187 26.3334C22 26.3334 19.8712 25.093 18.3437 23.4896C16.7404 21.9621 15.5 19.8334 15.5 18.6146C15.5 17.3688 16.3731 17.1196 17.0838 16.4079C17.3611 16.1316 17.6666 15.6788 17.6666 15.3007C17.6666 14.7471 17.3081 13.7082 16.8931 13.016C15.8954 11.353 15.5899 10.7973 14.5748 9.59479C14.2314 9.18746 13.8403 9.00112 13.4308 9.00004C12.7386 8.99896 11.8296 9.34237 11.2143 9.80062C10.2891 10.4907 9.32172 11.43 9.06281 12.6C9.02814 12.7592 9.00756 12.9195 9.00106 13.0799C8.95122 14.2986 9.43005 15.5358 9.94681 16.5834C11.1634 19.0523 12.7732 21.4421 14.525 23.5763C15.0851 24.2588 15.695 24.8936 16.3266 25.5068C16.9397 26.1373 17.5746 26.7472 18.2571 27.3084C20.3912 29.0601 22.7811 30.67 25.25 31.8865C26.2878 32.3979 27.5098 32.868 28.7166 32.8334C28.8889 32.828 29.0611 32.8085 29.2334 32.7705C30.4034 32.5127 31.3426 31.5442 32.0327 30.619C32.491 30.0037 32.8344 29.0959 32.8333 28.4025C32.8322 27.993 32.6459 27.602 32.2386 27.2585ZM32.8333 22C32.2353 22 31.75 21.5147 31.75 20.9167V19.8334C31.75 14.4579 27.3755 10.0834 22 10.0834C21.402 10.0834 20.9166 9.59804 20.9166 9.00004C20.9166 8.40204 21.402 7.91671 22 7.91671C28.5704 7.91671 33.9166 13.263 33.9166 19.8334V20.9167C33.9166 21.5147 33.4313 22 32.8333 22ZM26.1795 19.8334C25.6985 19.8334 25.2586 19.5105 25.1319 19.023C24.8351 17.8845 23.9467 16.995 22.8125 16.7025C22.2329 16.552 21.8851 15.9615 22.0346 15.382C22.1841 14.8035 22.7735 14.4557 23.3552 14.6041C25.2489 15.0949 26.7331 16.578 27.2281 18.476C27.3787 19.0555 27.0321 19.646 26.4536 19.7976C26.3615 19.8215 26.2694 19.8334 26.1795 19.8334ZM29.5833 20.9167C28.9853 20.9167 28.5 20.4314 28.5 19.8334C28.5 16.3797 25.7981 13.5305 22.3488 13.3485C21.7508 13.3171 21.2926 12.8069 21.324 12.21C21.3554 11.612 21.8743 11.1526 22.4626 11.1851C27.0635 11.4278 30.6666 15.227 30.6666 19.8334C30.6666 20.4314 30.1813 20.9167 29.5833 20.9167ZM22 0.333374C17.125 0.333374 9.52864 0.781874 4.90064 5.00904C1.62897 8.26662 0.333305 12.8361 0.333305 18.75C0.333305 19.2397 0.331139 19.7857 0.335472 20.375C0.331139 20.9633 0.333305 21.5093 0.333305 21.999C0.333305 27.9129 1.62897 32.4824 4.90064 35.74C6.66214 37.3487 8.85914 38.4071 11.1666 39.1048V44.073C11.1666 45.802 12.3031 45.8334 12.5111 45.8334H12.5208C13.056 45.8312 13.5186 45.569 13.9822 45.1574C14.1566 45.0025 16.1706 42.7578 18.3611 40.303C19.6654 40.3864 20.9047 40.4167 21.9989 40.4167C26.8739 40.4167 34.4691 39.9671 39.0982 35.74C42.3688 32.4835 43.6656 27.9129 43.6656 21.999C43.6656 21.5093 43.6677 20.9633 43.6634 20.374C43.6677 19.7846 43.6656 19.2397 43.6656 18.749C43.6656 12.835 42.3699 8.26554 39.0982 5.00796C34.4702 0.781874 26.875 0.333374 22 0.333374ZM40.4166 21.622V21.999C40.4166 27.3138 39.2846 30.9354 36.8568 33.387C32.6513 37.1667 24.6401 37.1667 21.9989 37.1667C21.1951 37.1667 19.8907 37.1656 18.3513 37.0584C17.9234 37.5394 13.3333 42.6733 13.3333 42.6733V36.3217C11.054 35.7746 8.80172 34.8776 7.14314 33.388C4.71539 30.9354 3.58331 27.3138 3.58331 21.999V21.622C3.58331 21.2417 3.58222 20.8311 3.58547 20.3512C3.58222 19.9179 3.58222 19.5084 3.58331 19.127V18.75C3.58331 13.4352 4.71539 9.81362 7.14314 7.36204C11.3476 3.58229 19.3599 3.58229 22 3.58229C24.6401 3.58229 32.6513 3.58229 36.8557 7.36204C39.2846 9.81362 40.4156 13.4352 40.4156 18.75V19.127C40.4156 19.5073 40.4166 19.9179 40.4134 20.3978C40.4166 20.8322 40.4166 21.2417 40.4166 21.622Z" fill="url(#paint0_linear_264_65)"/>
<defs>
<linearGradient id="paint0_linear_264_65" x1="42.1586" y1="48.4301" x2="-1.26786" y2="-11.8682" gradientUnits="userSpaceOnUse">
<stop stop-color="#912FBD"/>
<stop offset="1" stop-color="#9332BF"/>
</linearGradient>
</defs>
</svg>
