<?xml version="1.0" encoding="utf-8"?>
<!-- Generator: Adobe Illustrator 24.2.0, SVG Export Plug-In . SVG Version: 6.00 Build 0)  -->
<svg version="1.1" id="Слой_1" xmlns="http://www.w3.org/2000/svg" xmlns:xlink="http://www.w3.org/1999/xlink" x="0px" y="0px"
	 viewBox="0 0 1200 800" style="enable-background:new 0 0 1200 800;" xml:space="preserve">
<style type="text/css">
	.st0{display:none;}
	.st1{display:inline;}
	.st2{fill-opacity:0.2;}
	.st3{fill:url(#SVGID_1_);}
	.st4{fill:url(#SVGID_2_);}
	.st5{fill-rule:evenodd;clip-rule:evenodd;fill:#FFFFFF;}
</style>
<g>
	<g transform="matrix(1 0 0 -1 -542.696 1013.504)" class="st0">
		<g class="st1">
			<path id="e" d="M796.9,606.5c0-64.7,16.8-127.9,48.9-183.7l-52-190.4l194.3,51.1c53.5-29.3,113.8-44.7,175.1-44.7h0.2
				c202,0,366.4,164.8,366.5,367.4c0,98.2-38.1,190.5-107.2,259.9c-69.2,69.4-161.2,107.7-259.3,107.7
				C961.4,973.9,797,809.1,796.9,606.5z"/>
		</g>
		<g class="st1">
			<path id="e_1_" class="st2" d="M796.9,606.5c0-64.7,16.8-127.9,48.9-183.7l-52-190.4l194.3,51.1c53.5-29.3,113.8-44.7,175.1-44.7
				h0.2c202,0,366.4,164.8,366.5,367.4c0,98.2-38.1,190.5-107.2,259.9c-69.2,69.4-161.2,107.7-259.3,107.7
				C961.4,973.9,797,809.1,796.9,606.5z"/>
		</g>
	</g>
	
		<linearGradient id="SVGID_1_" gradientUnits="userSpaceOnUse" x1="416.6859" y1="1107.8344" x2="416.6859" y2="274.073" gradientTransform="matrix(0.8515 0 0 0.8553 264.5834 -184.6342)">
		<stop  offset="0" style="stop-color:#20B038"/>
		<stop  offset="1" style="stop-color:#60D66A"/>
	</linearGradient>
	<path class="st3" d="M267.4,403.2c0,62.3,16.3,123.1,47.2,176.7L264.4,763l187.4-49.1c51.6,28.1,109.8,43,168.9,43h0.2
		c194.8,0,353.4-158.5,353.5-353.4c0-94.4-36.7-183.2-103.4-250C804.2,86.6,715.4,49.8,620.9,49.8C426,49.8,267.5,208.3,267.4,403.2
		"/>
	
		<linearGradient id="SVGID_2_" gradientUnits="userSpaceOnUse" x1="426.3661" y1="1113.4677" x2="426.3661" y2="249.7982" gradientTransform="matrix(0.8515 0 0 0.8553 256.3347 -176.6625)">
		<stop  offset="0" style="stop-color:#F9F9F9"/>
		<stop  offset="1" style="stop-color:#FFFFFF"/>
	</linearGradient>
	<path class="st4" d="M254.8,403c0,64.5,16.8,127.5,48.9,183l-51.9,189.7l194.1-50.9c53.5,29.2,113.7,44.5,175,44.6h0.2
		c201.8,0,366.1-164.2,366.2-366.1c0-97.8-38-189.8-107.2-259C810.8,75.2,718.9,37,620.9,37C419.1,37,254.8,201.2,254.8,403
		L254.8,403z M370.4,576.5l-7.2-11.5c-30.5-48.4-46.6-104.4-46.5-161.9c0.1-167.8,136.6-304.2,304.5-304.2
		c81.3,0,157.7,31.7,215.2,89.2c57.5,57.5,89.1,134,89.1,215.3c-0.1,167.8-136.6,304.3-304.3,304.3h-0.1
		c-54.6,0-108.2-14.7-154.9-42.4l-11.1-6.6l-115.2,30.2L370.4,576.5z"/>
	<path class="st5" d="M529.4,250c-6.9-15.2-14.1-15.5-20.6-15.8c-5.3-0.2-11.4-0.2-17.5-0.2c-6.1,0-16,2.3-24.4,11.4
		c-8.4,9.2-32,31.3-32,76.3c0,45,32.8,88.5,37.4,94.6c4.6,6.1,63.3,101.4,156.3,138.1c77.3,30.5,93,24.4,109.8,22.9
		c16.8-1.5,54.1-22.1,61.8-43.5c7.6-21.4,7.6-39.7,5.3-43.5c-2.3-3.8-8.4-6.1-17.5-10.7c-9.2-4.6-54.1-26.7-62.5-29.8
		c-8.4-3-14.5-4.6-20.6,4.6c-6.1,9.2-23.6,29.8-29,35.9c-5.3,6.1-10.7,6.9-19.8,2.3c-9.2-4.6-38.6-14.2-73.6-45.4
		c-27.2-24.2-45.6-54.2-50.9-63.4c-5.3-9.2-0.6-14.1,4-18.7c4.1-4.1,9.2-10.7,13.7-16c4.6-5.3,6.1-9.2,9.1-15.3
		c3-6.1,1.5-11.5-0.8-16C555.3,313.4,537.6,268.1,529.4,250"/>
</g>
</svg>
