<svg width="41" height="41" viewBox="0 0 41 41" fill="none" xmlns="http://www.w3.org/2000/svg">
<path d="M20.6311 5.1217C20.6457 5.12174 20.6614 5.12177 20.6782 5.12181L20.8597 5.12238C22.9655 5.13011 33.6386 5.20748 36.5163 5.98112C38.2804 6.45427 39.6695 7.84867 40.141 9.61868C40.4005 10.5911 40.5814 11.8837 40.7075 13.213L40.732 13.4792C40.7518 13.7014 40.7702 13.924 40.7871 14.1459L40.8068 14.4116C40.9753 16.754 40.9949 18.946 40.9972 19.4256L40.9975 19.4903C40.9975 19.4956 40.9975 19.5042 40.9975 19.5042V19.5405C40.9975 19.5405 40.9975 19.5492 40.9975 19.5545L40.9972 19.6192C40.9948 20.1169 40.9738 22.4587 40.7871 24.899L40.7661 25.1655L40.7437 25.4323C40.6168 26.8996 40.4265 28.3565 40.141 29.4261C39.6695 31.1961 38.2804 32.5908 36.5163 33.0636C33.5427 33.8634 22.2453 33.9194 20.6782 33.9233L20.5576 33.9235C20.5477 33.9235 20.539 33.9236 20.5315 33.9236L20.4822 33.9236C20.4822 33.9236 20.4709 33.9236 20.4634 33.9236L20.3167 33.9233C19.5247 33.9213 16.2477 33.906 12.8158 33.7882L12.377 33.7726C12.3038 33.7699 12.2306 33.7671 12.1574 33.7643L11.7181 33.747L11.2798 33.7284C8.43671 33.6036 5.72597 33.399 4.47897 33.0636C2.71489 32.5908 1.32576 31.1961 0.854285 29.4261C0.568652 28.3565 0.378231 26.8996 0.251283 25.4323L0.228894 25.1655L0.207861 24.899C0.0279398 22.5475 0.00182223 20.2873 -0.00196903 19.6807L-0.00242208 19.5939C-0.00245387 19.5861 -0.00248036 19.5789 -0.00250244 19.5723V19.4725C-0.00248036 19.4659 -0.00245387 19.4587 -0.00242208 19.4509L-0.00196903 19.364C0.00146457 18.8147 0.0232107 16.9091 0.160936 14.8077L0.178763 14.544C0.181837 14.5 0.184963 14.4558 0.188143 14.4116L0.207861 14.1459C0.224835 13.924 0.243177 13.7014 0.262999 13.4792L0.287502 13.213C0.41364 11.8837 0.594619 10.5911 0.854285 9.61868C1.32576 7.84867 2.71489 6.45427 4.47897 5.98112C5.72597 5.64588 8.43671 5.44138 11.2798 5.31663L11.7181 5.29806L12.1574 5.28071C12.2306 5.27792 12.3038 5.27517 12.377 5.27248L12.8158 5.25687C16.0286 5.14658 19.1058 5.12616 20.1353 5.12238L20.3167 5.12181C20.3335 5.12177 20.3493 5.12174 20.3638 5.1217H20.6311ZM16.3976 13.3504V25.6944L27.0492 19.5227L16.3976 13.3504Z" fill="white"/>
</svg>
