<?xml version="1.0" encoding="utf-8"?>
<!-- Generator: Adobe Illustrator 24.2.0, SVG Export Plug-In . SVG Version: 6.00 Build 0)  -->
<svg version="1.1" id="Слой_1" xmlns="http://www.w3.org/2000/svg" xmlns:xlink="http://www.w3.org/1999/xlink" x="0px" y="0px"
	 viewBox="0 0 701 701" style="enable-background:new 0 0 701 701;" xml:space="preserve">
<style type="text/css">
	.st0{fill:#FFFFFF;}
	.st1{fill:#EEFFBB;}
	.st2{fill:#8426CD;}
</style>
<path class="st0" d="M260.8,183.8c0,0-17.1-35.2-35.7-20.3c-3.2,2.8-5.6,6.4-7,10.4c-4.6,14.3-13.1,53.3,36.9,48.6"/>
<path d="M260.8,184.4c-2.9-4.9-6.3-9.5-10.2-13.7c-3.7-4.2-8.5-7.1-13.9-8.4c-2.6-0.4-5.2,0-7.5,1.2c-2.3,1.2-4.4,2.9-6.1,4.9
	c-1.7,2.2-3,4.6-3.8,7.3c-0.8,2.6-1.5,5.2-2,7.8c-1.3,5.4-1.6,11-1.2,16.6c0.7,5.4,3.1,10.4,7,14.2c4.3,3.7,9.5,6,15.1,6.7
	c5.6,1,11.2,1.4,16.8,1.2c-5.7,0.8-11.4,0.9-17.1,0.3c-5.9-0.5-11.6-2.7-16.2-6.4c-4.5-4.1-7.4-9.6-8.1-15.7
	c-0.7-5.8-0.4-11.7,0.9-17.4c0.6-2.6,1.4-5.5,2.3-8.1c0.9-3,2.4-5.7,4.4-8.1c2-2.2,4.3-4.1,7-5.5c2.9-1.3,6.1-1.7,9.3-1.2
	c5.6,1.8,10.6,5.2,14.2,9.9C255.3,174.3,258.4,179.2,260.8,184.4z"/>
<path class="st0" d="M231.3,181c0,0,15.2-3,18.2,20.9L231.3,181z"/>
<path d="M231.3,181.6c1.3-0.5,2.6-0.8,4-0.7c1.4,0.1,2.7,0.4,3.9,1c2.7,1,5,2.7,6.7,4.9l1.8,3.5c0.5,1.2,0.9,2.5,1.2,3.8
	c0.3,1.2,0.5,2.5,0.6,3.8v4.1c-0.6-1.2-0.9-2.6-1.5-3.8l-1.2-3.2c-1-2.2-2.2-4.4-3.6-6.4c-1.3-2-3-3.6-5-4.9
	C236.1,182.5,233.7,181.8,231.3,181.6z"/>
<path class="st0" d="M240.6,208.9c0,0-9.4-7.2,2-12.6L240.6,208.9z"/>
<path d="M240.6,208.9c-1.5-0.5-2.7-1.5-3.6-2.7c-0.5-0.6-0.9-1.4-1.2-2.2c-0.2-0.8-0.3-1.6-0.2-2.5c0.4-1.7,1.4-3.1,2.8-4.1l2-1.1
	h2.2l-1.4,1.4l-1.4,1.6c-0.7,0.9-1.2,1.9-1.4,3C238.5,204.7,239.2,207,240.6,208.9z"/>
<path class="st0" d="M440.2,183.8c0,0,16.9-35.2,35.6-20.3c3.4,2.6,5.9,6.3,7,10.4c4.7,14.3,13.1,53.3-36.8,48.6"/>
<path d="M440.2,184.4c2.3-5.3,5.3-10.2,9-14.5c3.7-4.7,8.8-8.2,14.6-9.9c3.1-0.5,6.2-0.1,9,1.2c2.7,1.3,5.1,3.2,7,5.5
	c2,2.4,3.4,5.2,4.4,8.1c0.9,2.6,1.8,5.5,2.3,8.1c1.3,5.7,1.6,11.6,0.9,17.4c-0.7,6-3.6,11.6-8.2,15.7c-4.6,3.6-10.2,5.8-16.1,6.4
	c-5.7,0.6-11.5,0.5-17.2-0.3c5.7,0.2,11.3-0.2,16.9-1.2c5.5-0.7,10.7-3,14.9-6.7c4.1-3.7,6.6-8.8,7-14.2c0.5-5.5,0.1-11.1-1.2-16.6
	c-0.5-2.7-1.2-5.3-2-7.8c-0.8-2.6-2.1-5.1-3.8-7.3c-1.6-2.1-3.7-3.8-6.1-4.9c-2.4-1.1-5-1.5-7.6-1.2c-5.4,1.3-10.2,4.2-13.7,8.4
	C446.5,174.9,443,179.5,440.2,184.4z"/>
<path class="st0" d="M469.7,181c0,0-15.2-3-18.2,20.9L469.7,181z"/>
<path d="M469.7,181.6c-2.4,0.1-4.8,0.8-6.9,2s-3.8,2.9-5.1,4.9c-1.4,1.9-2.6,4.1-3.3,6.4l-1.5,3.2l-1.2,3.8
	c-0.2-1.3-0.3-2.7-0.3-4.1c0.3-1.2,0.3-2.3,0.6-3.8c0.3-1.5,0.9-2.3,1.2-3.8c0.6-1.2,1.3-2.4,2.1-3.5c1.5-2.2,3.7-4,6.3-4.9
	c1.2-0.6,2.6-1,4-1C467,180.8,468.4,181.1,469.7,181.6z"/>
<path class="st0" d="M459,208.9c0,0,9.4-7.2-2-12.6L459,208.9z"/>
<path d="M459.1,208.9c1.3-2,2-4.4,2-6.7c-0.1-1.1-0.6-2.2-1.4-3l-1.2-1.6l-1.4-1.3h2l2.3,1.1c1.3,1.1,2.2,2.5,2.6,4
	c0.2,0.8,0.1,1.6-0.1,2.4c-0.3,0.8-0.7,1.5-1.3,2.1C461.8,207.3,460.6,208.3,459.1,208.9z"/>
<path class="st0" d="M406.2,349.8v-62.9c0-14.7-5.9-28.9-16.3-39.3c-10.5-10.4-24.6-16.3-39.4-16.3s-29,5.9-39.4,16.3
	c-10.5,10.4-16.3,24.6-16.3,39.3v62.9c0,9.9-3.4,19.6-9.6,27.3c-6.2,7.8-14.8,13.3-24.4,15.7c-55.4,12.8-104.8,43.9-140.2,88.2
	c-35.4,44.4-54.6,99.4-54.6,156.1c0.1,8.7,3.6,17.1,9.8,23.3c6.2,6.2,14.6,9.7,23.4,9.8H602c8.8-0.1,17.2-3.6,23.4-9.8
	c6.2-6.2,9.7-14.5,9.8-23.3c0-56.7-19.3-111.7-54.6-156.1c-35.4-44.4-84.8-75.5-140.2-88.2c-9.7-2.4-18.3-7.9-24.4-15.7
	C409.7,369.4,406.3,359.7,406.2,349.8z"/>
<path d="M406.1,349v-53.4c-0.3-4.4,0-8.8-0.3-13.2c-0.3-4.4-1.1-8.7-2.3-12.9c-2.6-8.5-7.3-16.3-13.5-22.6
	c-6.2-6.4-13.8-11.1-22.3-13.8c-8.4-2.7-17.4-3.4-26.1-2.1c-4.5,0.7-8.8,2-12.9,3.8c-4,1.7-7.7,3.9-11.2,6.5
	c-3.6,2.6-6.8,5.7-9.7,9.1c-8.3,10.4-12.9,23.3-12.9,36.7v53.1c0,4.4,0,8.8-0.3,13.5c-0.5,4.4-1.6,8.8-3.2,12.9
	c-3.6,8.4-9.6,15.4-17.3,20.2c-3.8,2.5-7.9,4.3-12.3,5.3l-12.6,3.8c-8.6,2.3-17,5-25.2,8.2c-4.1,1.6-8.2,3.4-12,5.6l-12,5.6
	l-11.4,6.7l-5.9,3.2l-5.3,3.8l-10.9,7.6l-10.3,8.5l-5.3,4.1c-1.5,1.5-3.2,2.9-4.7,4.7l-9.4,9.1c-3.2,3.2-5.9,6.7-9.1,10
	s-5.9,6.5-8.2,10l-7.9,10.9l-2.1,2.6l-1.8,2.6l-3.5,5.9l-3.5,5.6l-3.2,5.6l-5.9,12c-0.9,1.8-2.1,3.8-2.9,5.9l-2.6,6.2l-5,12.3
	l-3.8,12.6l-2.1,6.2c-0.6,2.3-0.9,4.4-1.5,6.5l-2.6,12.9c-0.5,2.2-0.9,4.5-1.2,6.7l-0.9,6.5l-0.9,6.5c-0.3,2.2-0.5,4.5-0.6,6.7
	l-0.6,13.2v12.9c0.9,4.2,2.6,8.2,5,11.7c5,7.1,12.6,12,21.1,13.5c4.3,0.4,8.6,0.5,12.9,0.3h493c4.4,0.2,8.7-0.3,12.9-1.5
	c4.1-1.4,7.9-3.6,11.2-6.5c3.3-2.8,6.1-6.2,8-10.1c1.9-3.9,3-8.1,3.2-12.5c0.1-2.1,0.1-4.3,0-6.5v-13.5c0.1-2.2-0.1-4.3-0.6-6.5
	l-1.5-13.2l-0.9-6.5l-1.5-6.5l-2.9-13.2c-1.2-4.1-2.6-8.2-3.8-12.6c-1.2-4.4-6.2-16.4-9.4-24.9l-1.2-2.9l-1.5-2.9l-2.9-5.9l-3.2-5.9
	c-0.8-2-1.8-4-2.9-5.9l-7-11.4l-3.5-5.6l-4.1-5.3l-7.9-10.6l-8.8-10l-4.4-5l-4.7-4.7l-9.4-9.4l-10.3-8.5c-3.5-2.6-6.8-5.6-10.6-7.9
	l-10.9-7.6c-1.7-1.4-3.6-2.6-5.6-3.5l-5.9-3.5l-5.6-3.2l-2.9-1.8l-2.9-1.2l-12-5.9c-4.1-2.1-8.2-3.2-12.3-5l-12.6-4.4l-12.9-3.5
	l-6.2-1.8l-6.5-2.1c-8.3-3.3-15.5-9-20.5-16.4C409.2,366.3,406.4,357.8,406.1,349z M406.1,349c0,8.9,2.7,17.6,7.6,24.9
	c5,7.4,12.2,13,20.5,16.1l6.5,2.1l6.5,1.8l12.6,3.5l12.6,4.4c4.1,1.8,8.5,2.9,12.3,5l12,5.6l2.9,1.5l2.9,1.8l5.9,3.2l5.9,3.2
	l5.6,3.5l10.9,7.6c3.8,2.4,7.3,5.2,10.6,8.2l10.3,8.5l9.7,9.1l4.7,4.7l4.4,5l8.8,10c2.9,3.5,5.3,7,7.9,10.6l4.1,5.6
	c1.3,1.7,2.5,3.6,3.5,5.6l7,11.1c1.4,1.8,2.4,3.8,3.2,5.9l3.2,5.9l2.9,5.9l1.5,3.2l1.2,2.9c3.7,8.1,6.8,16.4,9.4,24.9
	c1.5,4.4,2.9,8.5,4.1,12.6l2.9,13.2l1.5,6.5l0.9,6.5l1.8,13.5c0.3,2.1,0.3,4.4,0.6,6.5v13.5c0.1,2.1,0.1,4.3,0,6.5
	c-0.2,4.6-1.3,9-3.3,13.1c-2,4.1-4.9,7.7-8.4,10.6c-3.4,3-7.4,5.3-11.7,6.7l-3.2,0.9l-3.2,0.6H412.5l-212.8,0.6h-93.3
	c-4.5,0.2-9,0-13.5-0.6c-6.8-1.1-13.2-4.3-18.2-9.1c-5-4.8-8.4-11.1-9.7-17.9l-0.6-3.5v-10l0.6-13.5c0.1-2.2,0.2-4.3,0.6-6.5
	l0.9-6.7l0.9-6.7c0.2-2.2,0.6-4.3,1.2-6.5l2.9-12.9c0.6-2.3,0.9-4.4,1.5-6.7l2.1-6.2l4.1-12.9l5-12.3l2.6-6.2c0.7-2.1,1.7-4,2.9-5.9
	l5.9-12l3.5-5.6l3.5-5.9l3.5-5.6l1.8-2.9l2.1-2.6l7.9-10.6c2.5-3.7,5.4-7.1,8.5-10.3l8.8-10l9.7-9.4l5-4.4l5-4.4l10.3-8.2l11.2-7.6
	l5.6-3.8l5.6-3.5l11.7-6.5l12-5.9c4.1-1.8,7.9-3.8,12-5.3c4.1-1.5,16.7-6.5,25.2-8.5l12.9-3.5c4.3-0.9,8.4-2.6,12-5
	c7.4-4.8,13.3-11.8,16.7-20c1.8-4,2.9-8.3,3.2-12.6c0.4-4.4,0.5-8.8,0.3-13.2v-53.1c-0.2-8.9,1.7-17.8,5.6-25.8
	c2.1-4,4.6-7.9,7.3-11.4c2.9-3.3,6.2-6.4,9.7-9.1c3.6-2.6,7.6-4.8,11.7-6.5c4-1.8,8.3-3.1,12.6-3.8c8.8-1.2,17.9-0.5,26.4,2.1
	c8.5,2.8,16.3,7.7,22.6,14.1c6.2,6.4,10.8,14.1,13.5,22.6c1.2,4.3,2,8.7,2.3,13.2c0.3,4.4,0,8.8,0,13.2L406.1,349z"/>
<path class="st1" d="M351.3,70.1h-0.3c-53,0-95.9,42.7-95.9,95.4v60.1c0,52.7,42.9,95.4,95.9,95.4h0.3c53,0,95.9-42.7,95.9-95.4
	v-60.1C447.2,112.8,404.3,70.1,351.3,70.1z"/>
<path d="M350.5,70.1c15.2,0,30.2,3.5,43.8,10.3c13.5,6.9,25.2,16.8,34.1,29c2.2,3.1,4.3,6.3,6.2,9.7c1.1,1.6,1.9,3.2,2.6,5
	c0.9,1.6,1.7,3.3,2.3,5c3,7,5.2,14.2,6.5,21.7l0.9,5.9v5.6c0.3,3.8,0,7.6,0.3,11.4v45.2c0,3.8,0.3,7.3,0,11.1v5.9l-0.9,5.6
	c-1.1,7.5-3,14.9-5.9,22c-0.7,1.8-1.4,3.6-2.3,5.3c-0.7,1.8-1.6,3.4-2.6,5c-1.9,3.3-3.9,6.6-6.2,9.7c-9,12.4-20.7,22.6-34.4,29.6
	c-13.7,7.1-28.9,10.8-44.3,10.8s-30.6-3.7-44.3-10.8c-13.6-7.1-25.4-17.2-34.4-29.6c-2.2-3.1-4.3-6.3-6.2-9.7
	c-1.1-1.6-1.9-3.2-2.6-5c-0.9-1.7-1.7-3.5-2.3-5.3c-2.8-7.1-4.8-14.5-5.9-22l-0.9-5.6V230c-0.3-3.8,0-7.3,0-11.1v-45.2
	c0.3-3.8,0-7.6,0.3-11.4v-5.6l0.9-5.9c1.3-7.4,3.4-14.7,6.2-21.7l2.6-5c0.7-1.8,1.6-3.4,2.6-5c1.9-3.3,3.9-6.6,6.2-9.7
	c8.9-12.2,20.6-22.2,34.1-29C320.3,73.6,335.3,70.1,350.5,70.1z M350.5,70.1c-15.1,0.1-30,3.7-43.5,10.6
	c-13.5,6.9-25.2,16.8-34.1,29c-2.3,2.9-4.1,6.5-6.2,9.4l-2.3,5.3c-1,1.6-1.7,3.2-2.3,5c-2.8,7-4.8,14.3-6.2,21.7
	c-0.1,1.9-0.2,3.7-0.6,5.6v5.6c-0.3,3.8,0,7.6,0,11.4v45.2c0.3,3.8,0,7.3,0.3,11.1v5.6l0.9,5.6c1.3,7.3,3.4,14.5,6.2,21.4l2.3,5
	c0.7,1.8,1.6,3.4,2.6,5c1.9,3.2,3.9,6.4,6.2,9.4c8.8,12.1,20.4,22,33.8,28.8c13.4,6.5,28,10,42.9,10.3c14.9-0.1,29.5-3.6,42.9-10.3
	c13.4-6.8,25-16.6,33.8-28.8c2.2-3,4.3-6.1,6.2-9.4c1.1-1.6,1.9-3.2,2.6-5l2.3-5c2.8-6.9,4.9-14.1,6.2-21.4l0.9-5.6V230
	c0.3-3.8,0-7.3,0.3-11.1v-45.2c0-3.8,0.3-7.6,0-11.4v-5.6c-0.3-1.8-0.5-3.7-0.6-5.6c-1.3-7.4-3.4-14.7-6.2-21.7
	c-0.6-1.7-1.4-3.4-2.3-5l-2.3-5.3c-2.1-2.9-3.8-6.5-6.2-9.4c-8.9-12.2-20.6-22.2-34.1-29C380.5,73.8,365.6,70.2,350.5,70.1z"/>
<path class="st0" d="M348.3,200.5v13.7c0,2-0.4,3.9-1.3,5.7c-0.9,1.8-2.2,3.3-3.8,4.5c-1.9,1.5-4.3,2.3-6.8,2.3
	c0,0,11.8,14.6,26.6,2.9"/>
<path d="M348.5,200.5c0.3,2.6,0.3,5.1,0.6,8c0.4,2.7,0.5,5.5,0.3,8.2c-0.4,2.9-1.9,5.6-4.1,7.7c-2.4,2-5.3,3.1-8.5,3.1l1.2-2.3
	c1.4,1.6,3.1,3.1,5,4.3c2,1.1,4.2,2,6.4,2.6c2.3,0.3,4.7,0.2,7-0.3l3.5-1.1l3.2-1.7c-1.9,1.7-4,3.1-6.4,4c-2.4,1.1-5,1.5-7.6,1.1
	c-2.6-0.3-5-1.1-7.3-2.3c-2.3-1.3-4.4-2.9-6.1-4.8l-2-2.3h3.2c1.2,0,2.4-0.2,3.5-0.7c1.1-0.4,2.1-1.1,2.9-1.9c2-1.4,3.4-3.6,3.8-6
	c0.3-1.2,0.4-2.5,0.3-3.7v-4L348.5,200.5z"/>
<path class="st0" d="M314,260.8c0,0,31,21.3,71.5,1.2L314,260.8z"/>
<path d="M314,260.8c5.5,2.6,11.3,4.6,17.3,6c5.9,1.5,12,2.2,18.2,2.3c6.2,0,12.4-0.6,18.5-2c6-1.3,11.9-3.1,17.6-5.2l-8.3,4.3
	c-2.9,1.2-5.9,2.3-8.9,3.2c-6.1,1.6-12.4,2.5-18.8,2.6c-6.4-0.1-12.7-1.1-18.8-2.9l-8.6-3.5C319.3,264.3,316.6,262.6,314,260.8z"/>
<path class="st0" d="M322.5,175.3c-4.8-2.7-10.4-4.1-16-4.2c-5.7-0.1-11.3,1.2-16.2,3.7"/>
<path d="M322.5,175.3c-2.6-1-5.2-1.7-7.9-2.2c-2.7-0.5-5.5-0.7-8.2-0.6c-2.7-0.1-5.3,0.1-7.9,0.6l-8.2,1.7c2.3-1.7,4.9-3,7.6-3.9
	c2.8-0.8,5.6-1.2,8.5-1.1c3-0.1,6,0.4,8.8,1.4C317.9,171.9,320.4,173.3,322.5,175.3z"/>
<path d="M307.7,196.3c3.5,0,6.3-2.8,6.3-6.3c0-3.5-2.8-6.3-6.3-6.3c-3.5,0-6.3,2.8-6.3,6.3C301.4,193.5,304.3,196.3,307.7,196.3z"/>
<path class="st0" d="M377.1,176.7c4.6-2.7,9.9-4.1,15.3-4.2c5.4-0.1,10.8,1.2,15.5,3.7"/>
<path d="M377.1,176.7c1.9-2,4.4-3.4,7-4.2c2.6-1,5.4-1.5,8.2-1.4c2.8-0.1,5.6,0.3,8.2,1.1c2.7,0.9,5.2,2.2,7.3,3.9l-7.9-1.7
	c-2.5-0.5-5.1-0.7-7.6-0.6c-2.6-0.1-5.1,0.1-7.6,0.6C382.2,174.9,379.6,175.7,377.1,176.7z"/>
<path d="M391.2,197.7c3.1,0,5.6-2.8,5.6-6.3s-2.5-6.3-5.6-6.3c-3.1,0-5.6,2.8-5.6,6.3S388.1,197.7,391.2,197.7z"/>
<path class="st2" d="M316.8,384.1h67.4c68,0,133.3,27,181.4,75.1c48.1,48.1,75.1,113.3,75.1,181.4c0,8.9-3.6,17.5-9.9,23.8
	c-6.3,6.3-14.9,9.9-23.8,9.9H94c-8.9,0-17.5-3.6-23.8-9.9c-6.3-6.3-9.9-14.9-9.9-23.8c0-68,27-133.3,75.1-181.4
	C183.5,411.2,248.8,384.1,316.8,384.1z"/>
<path class="st0" d="M295.2,333.7c0,0-29.1,0.9-35,15.7c-5.8,14.8-14.6,41.4-8.7,53.2s67,50.3,67,50.3l30.6-68
	C349.1,384.8,292.3,386,295.2,333.7z"/>
<path d="M294.8,333.7c-7.4,0.5-14.6,2.1-21.6,4.7c-3.5,1.2-6.7,3.2-9.3,5.9c-2.4,2.7-4.1,5.9-5,9.4c-2.7,7-4.9,14.1-6.4,21.5
	c-0.9,3.5-1.5,7.1-2,10.9c-0.3,3.6-0.2,7.3,0.3,10.9l0.6,2.4l0.9,2.4l1.5,2.4l2,1.8c2.5,2.7,5.2,5.1,8.2,7.4
	c5.8,4.7,11.7,8.8,17.8,13.2c12.2,8.5,24.8,16.5,37.3,24.4l-2,0.9l15.2-33.8l15.4-33.8l1.2,1.5c-7.1,0-14.2-1.1-21-3.2
	c-6.9-2-13.2-5.4-18.7-10c-5.5-4.7-9.6-10.8-12-17.6C294.9,347.8,294.1,340.7,294.8,333.7z M294.8,333.7c-0.4,7,0.6,14,2.9,20.6
	c2.4,6.6,6.7,12.5,12.2,16.8c5.4,4.3,11.7,7.5,18.4,9.4c6.7,1.8,13.5,2.8,20.4,2.9h1.7l-0.6,1.5L334.8,419l-15.4,33.8l-0.6,1.5
	l-1.5-0.9c-12.5-7.9-24.8-16.2-37-24.7c-6.1-4.4-12.2-8.8-18.1-13.5l-8.5-7.6l-1.7-2.1l-1.7-2.6c-0.5-0.8-0.9-1.7-1.2-2.6l-0.6-2.9
	c-0.4-3.8-0.4-7.7,0-11.5c0.6-3.8,1.2-7.6,2-11.2c0.9-3.5,4.4-14.4,7-21.5c0.7-1.8,1.4-3.6,2.3-5.3c0.8-1.7,2-3.2,3.5-4.4
	c2.8-2.6,6.1-4.6,9.6-5.9C280,335.1,287.4,333.8,294.8,333.7z"/>
<path class="st0" d="M405.9,333.7c0,0,29.1,0.9,34.9,15.7c5.8,14.8,14.6,41.4,8.7,53.2c-5.8,11.8-67,50.3-67,50.3l-33.5-68
	C349.1,384.8,408.8,386,405.9,333.7z"/>
<path d="M406.2,333.7c7.4,0.1,14.8,1.4,21.8,3.8c3.5,1.3,6.8,3.3,9.6,5.9c1.5,1.2,2.7,2.7,3.5,4.4c0.9,1.7,1.7,3.5,2.3,5.3
	c2.6,7.1,4.9,14.1,7,21.5c2,7.4,1.5,7.4,2,11.2c0.4,3.8,0.4,7.7,0,11.5l-0.6,2.9c-0.3,0.9-0.7,1.8-1.2,2.6l-1.7,2.6l-1.7,2.1
	l-8.4,7.6c-5.8,4.7-11.9,9.1-18.1,13.5c-12.2,8.5-24.5,16.8-37,24.7l-1.5,0.9l-0.6-1.5L364.9,419l-16.3-34.1l-0.9-1.5h1.7
	c7.1-0.1,14.1-1.1,21-2.9c6.9-1.7,13.4-4.7,19.2-8.8c5.9-4.2,10.5-10,13.1-16.8C405.5,348.2,406.7,340.9,406.2,333.7z M406.2,333.7
	c0.7,7.3-0.2,14.6-2.6,21.5c-2.7,7-7.2,13.1-13.1,17.6c-5.9,4.3-12.5,7.5-19.5,9.4c-7,2.1-14.2,3.2-21.5,3.5l0.9-1.8l17.2,33.8
	l16.6,33.5l-2-0.6c12.5-7.9,25-15.9,37.3-24.4c6.1-4.4,11.9-8.5,17.8-13.2c2.9-2.2,5.6-4.7,8.2-7.4l2-1.8l1.5-2.4l0.9-2.4l0.6-2.4
	c0.5-3.6,0.6-7.3,0.3-10.9c-0.6-3.8-1.2-7.4-2-10.9c-1.6-7.3-3.7-14.5-6.4-21.5c-0.8-3.5-2.5-6.8-4.9-9.4c-2.6-2.7-5.8-4.7-9.3-5.9
	C420.8,335.8,413.6,334.2,406.2,333.7z"/>
<path d="M173.8,562.2c1.8,9,3,18.4,3.9,27.7c0.9,9.3,1.8,18.9,2.4,28.3c0.6,9.3,0.9,18.6,0.6,28.3c-0.1,9.4-1.2,18.8-3.3,28
	c0-2.3,0.6-4.7,0.6-7c0-2.3,0.3-4.7,0.3-7v-14c-0.3-9.6-0.6-18.9-1.2-28.3l-1.5-28L173.8,562.2z"/>
<path d="M515.9,562.2c-0.3,9.3-0.9,18.6-1.6,28l-1.9,28c-0.6,9.3-0.9,18.6-1.3,28.3v14c0,2.3,0.3,4.7,0.3,7l0.9,7
	c-2.4-9.2-3.5-18.5-3.4-28c-0.3-9.6,0-18.9,0.3-28.3c0.3-9.3,1.3-18.9,2.5-28.3C513.1,580.6,514.1,571.2,515.9,562.2z"/>
<path d="M254.5,190.4c0,0-6.8-77.7,32.9-52.8c45,28.1,76.1,41.3,122,16.1c13.2-7.3,32.3-14.7,38.2,44c0,0-2.9-23.4,7.4-31.9
	c0,0,31.2-27,16.2-44.3c-15-17.3-20.6-82.1-73.5-90.9c-29.1-5-89.7-10.3-114.7,17.6c-25,27.8-52.3,18.2-58.8,44
	c-8.8,35.2,5.9,55.7,13.2,60.1C249.8,159.6,254.5,190.4,254.5,190.4z"/>
</svg>
